<svg xmlns="http://www.w3.org/2000/svg" viewBox="-21 -503 699 545" preserveAspectRatio="xMidYMid meet">
  <path
    fill="#ff9a00"
    d="M 177.59375 17.59375 L 19.203125 3.203125 L 24 -16.796875 L -20.796875 -20.796875 L 108 -499.203125 L 245.59375 -499.203125 L 252.796875 -475.203125 L 285.59375 -475.203125 L 343.203125 -281.59375 L 453.59375 -502.40625 L 588.796875 -484.796875 C 588.796875 -484.796875 588.796875 -482.796875 588.796875 -478.796875 C 588.796875 -474.796875 589.0625 -470.394531 589.59375 -465.59375 L 628.796875 -460.796875 C 628.796875 -460.796875 629.328125 -453.0625 630.390625 -437.59375 C 631.460938 -422.132812 632.796875 -401.335938 634.390625 -375.203125 C 635.992188 -349.066406 637.992188 -320 640.390625 -288 C 642.796875 -256 645.460938 -223.195312 648.390625 -189.59375 C 651.328125 -156 654.394531 -124 657.59375 -93.59375 C 660.800781 -63.195312 664.132812 -36.664062 667.59375 -14 C 671.0625 8.664062 674.394531 25.066406 677.59375 35.203125 L 485.59375 41.59375 C 485.59375 41.59375 485.59375 39.328125 485.59375 34.796875 C 485.59375 30.265625 485.863281 24 486.40625 16 L 445.59375 17.59375 C 445.59375 17.59375 445.859375 7.863281 446.390625 -11.59375 C 446.929688 -31.0625 448 -53.863281 449.59375 -80 L 419.203125 -5.59375 C 419.203125 -5.59375 413.867188 -5.457031 403.203125 -5.1875 C 392.535156 -4.925781 379.332031 -4.257812 363.59375 -3.1875 C 347.863281 -2.125 332 -0.660156 316 1.203125 C 300 3.066406 286.398438 5.332031 275.203125 8 L 268 -21.59375 C 261.601562 -21.0625 255.601562 -20.257812 250 -19.1875 C 244.394531 -18.125 239.460938 -17.0625 235.203125 -16 L 205.59375 -138.40625 C 201.332031 -112.800781 196.664062 -86.265625 191.59375 -58.796875 C 186.53125 -31.328125 181.863281 -5.863281 177.59375 17.59375 Z M -10.40625 -28 L 131.203125 -15.203125 C 135.460938 -36.535156 139.726562 -59.597656 144 -84.390625 C 148.269531 -109.191406 152.535156 -133.457031 156.796875 -157.1875 C 161.066406 -180.925781 164.929688 -202.53125 168.390625 -222 C 171.859375 -241.46875 174.660156 -257.066406 176.796875 -268.796875 C 178.929688 -280.535156 180 -286.40625 180 -286.40625 L 241.59375 -25.59375 C 251.195312 -28.257812 263.332031 -30.257812 278 -31.59375 C 292.664062 -32.925781 307.332031 -34.125 322 -35.1875 C 336.664062 -36.257812 348.929688 -36.925781 358.796875 -37.1875 C 368.660156 -37.457031 373.59375 -37.59375 373.59375 -37.59375 L 478.40625 -293.59375 C 476.800781 -283.46875 474.929688 -268.9375 472.796875 -250 C 470.660156 -231.0625 468.523438 -210.125 466.390625 -187.1875 C 464.265625 -164.257812 462.132812 -141.0625 460 -117.59375 C 457.863281 -94.132812 455.992188 -72.40625 454.390625 -52.40625 C 452.796875 -32.40625 451.597656 -16.40625 450.796875 -4.40625 C 449.992188 7.59375 449.59375 13.59375 449.59375 13.59375 L 627.203125 4 C 624.003906 -5.601562 620.800781 -21.335938 617.59375 -43.203125 C 614.394531 -65.066406 611.328125 -90.664062 608.390625 -120 C 605.460938 -149.332031 602.53125 -180.265625 599.59375 -212.796875 C 596.664062 -245.328125 594.132812 -277.328125 592 -308.796875 C 589.863281 -340.265625 587.863281 -368.664062 586 -394 C 584.132812 -419.332031 582.800781 -439.597656 582 -454.796875 C 581.195312 -469.992188 580.796875 -477.59375 580.796875 -477.59375 L 458.40625 -493.59375 L 320 -218.40625 L 239.203125 -491.203125 L 114.40625 -491.203125 Z M -10.40625 -28"
  />
</svg>