<svg xmlns="http://www.w3.org/2000/svg" xmlns:xlink="http://www.w3.org/1999/xlink" width="8000" zoomAndPan="magnify" viewBox="0 0 6000 1499.999933" height="2000" preserveAspectRatio="xMidYMid meet" version="1.0"><defs><g/></defs><g fill="#ff9a00" fill-opacity="1"><g transform="translate(1678.990784, 972.445852)"><g><path d="M 177.59375 17.59375 L 19.203125 3.203125 L 24 -16.796875 L -20.796875 -20.796875 L 108 -499.203125 L 245.59375 -499.203125 L 252.796875 -475.203125 L 285.59375 -475.203125 L 343.203125 -281.59375 L 453.59375 -502.40625 L 588.796875 -484.796875 C 588.796875 -484.796875 588.796875 -482.796875 588.796875 -478.796875 C 588.796875 -474.796875 589.0625 -470.394531 589.59375 -465.59375 L 628.796875 -460.796875 C 628.796875 -460.796875 629.328125 -453.0625 630.390625 -437.59375 C 631.460938 -422.132812 632.796875 -401.335938 634.390625 -375.203125 C 635.992188 -349.066406 637.992188 -320 640.390625 -288 C 642.796875 -256 645.460938 -223.195312 648.390625 -189.59375 C 651.328125 -156 654.394531 -124 657.59375 -93.59375 C 660.800781 -63.195312 664.132812 -36.664062 667.59375 -14 C 671.0625 8.664062 674.394531 25.066406 677.59375 35.203125 L 485.59375 41.59375 C 485.59375 41.59375 485.59375 39.328125 485.59375 34.796875 C 485.59375 30.265625 485.863281 24 486.40625 16 L 445.59375 17.59375 C 445.59375 17.59375 445.859375 7.863281 446.390625 -11.59375 C 446.929688 -31.0625 448 -53.863281 449.59375 -80 L 419.203125 -5.59375 C 419.203125 -5.59375 413.867188 -5.457031 403.203125 -5.1875 C 392.535156 -4.925781 379.332031 -4.257812 363.59375 -3.1875 C 347.863281 -2.125 332 -0.660156 316 1.203125 C 300 3.066406 286.398438 5.332031 275.203125 8 L 268 -21.59375 C 261.601562 -21.0625 255.601562 -20.257812 250 -19.1875 C 244.394531 -18.125 239.460938 -17.0625 235.203125 -16 L 205.59375 -138.40625 C 201.332031 -112.800781 196.664062 -86.265625 191.59375 -58.796875 C 186.53125 -31.328125 181.863281 -5.863281 177.59375 17.59375 Z M -10.40625 -28 L 131.203125 -15.203125 C 135.460938 -36.535156 139.726562 -59.597656 144 -84.390625 C 148.269531 -109.191406 152.535156 -133.457031 156.796875 -157.1875 C 161.066406 -180.925781 164.929688 -202.53125 168.390625 -222 C 171.859375 -241.46875 174.660156 -257.066406 176.796875 -268.796875 C 178.929688 -280.535156 180 -286.40625 180 -286.40625 L 241.59375 -25.59375 C 251.195312 -28.257812 263.332031 -30.257812 278 -31.59375 C 292.664062 -32.925781 307.332031 -34.125 322 -35.1875 C 336.664062 -36.257812 348.929688 -36.925781 358.796875 -37.1875 C 368.660156 -37.457031 373.59375 -37.59375 373.59375 -37.59375 L 478.40625 -293.59375 C 476.800781 -283.46875 474.929688 -268.9375 472.796875 -250 C 470.660156 -231.0625 468.523438 -210.125 466.390625 -187.1875 C 464.265625 -164.257812 462.132812 -141.0625 460 -117.59375 C 457.863281 -94.132812 455.992188 -72.40625 454.390625 -52.40625 C 452.796875 -32.40625 451.597656 -16.40625 450.796875 -4.40625 C 449.992188 7.59375 449.59375 13.59375 449.59375 13.59375 L 627.203125 4 C 624.003906 -5.601562 620.800781 -21.335938 617.59375 -43.203125 C 614.394531 -65.066406 611.328125 -90.664062 608.390625 -120 C 605.460938 -149.332031 602.53125 -180.265625 599.59375 -212.796875 C 596.664062 -245.328125 594.132812 -277.328125 592 -308.796875 C 589.863281 -340.265625 587.863281 -368.664062 586 -394 C 584.132812 -419.332031 582.800781 -439.597656 582 -454.796875 C 581.195312 -469.992188 580.796875 -477.59375 580.796875 -477.59375 L 458.40625 -493.59375 L 320 -218.40625 L 239.203125 -491.203125 L 114.40625 -491.203125 Z M -10.40625 -28 "/></g></g></g><g fill="#ff9a00" fill-opacity="1"><g transform="translate(2294.191596, 972.445852)"><g><path d="M 180.796875 -108 L 180 -108 C 184.269531 -110.664062 187.46875 -115.597656 189.59375 -122.796875 C 191.726562 -129.992188 192.796875 -138.128906 192.796875 -147.203125 C 192.796875 -158.929688 190.664062 -170.394531 186.40625 -181.59375 C 185.863281 -182.132812 185.59375 -182.671875 185.59375 -183.203125 C 181.332031 -181.066406 177.734375 -176 174.796875 -168 C 171.867188 -160 170.671875 -148.800781 171.203125 -134.40625 C 171.203125 -129.070312 171.734375 -124.132812 172.796875 -119.59375 C 173.867188 -115.0625 174.9375 -110.664062 176 -106.40625 C 177.0625 -106.40625 178.660156 -106.9375 180.796875 -108 Z M 262.40625 -268 C 293.332031 -255.726562 316.925781 -236.523438 333.1875 -210.390625 C 349.457031 -184.265625 357.59375 -154.9375 357.59375 -122.40625 C 357.59375 -93.070312 350.257812 -66.9375 335.59375 -44 C 320.925781 -21.0625 301.457031 -3.195312 277.1875 9.59375 C 252.925781 22.394531 226.664062 28.796875 198.40625 28.796875 C 158.9375 28.796875 125.066406 17.0625 96.796875 -6.40625 C 68.535156 -18.132812 45.46875 -37.597656 27.59375 -64.796875 C 9.726562 -91.992188 1.863281 -125.863281 4 -166.40625 C 5.601562 -196.269531 13.601562 -221.597656 28 -242.390625 C 42.394531 -263.191406 60.925781 -278.925781 83.59375 -289.59375 C 106.257812 -300.257812 130.660156 -305.59375 156.796875 -305.59375 C 178.660156 -305.59375 198.394531 -301.992188 216 -294.796875 C 233.601562 -287.597656 249.070312 -278.664062 262.40625 -268 Z M 184 -100.796875 C 177.0625 -97.597656 170.660156 -96 164.796875 -96 C 153.066406 -96 143.46875 -101.597656 136 -112.796875 C 128.53125 -123.992188 124.265625 -139.195312 123.203125 -158.40625 C 122.671875 -178.132812 125.070312 -192.664062 130.40625 -202 C 135.738281 -211.332031 142.40625 -216.53125 150.40625 -217.59375 C 161.601562 -217.59375 170.664062 -214.660156 177.59375 -208.796875 C 184.53125 -202.929688 189.863281 -194.929688 193.59375 -184.796875 C 198.394531 -174.128906 200.796875 -162.796875 200.796875 -150.796875 C 200.796875 -138.796875 199.328125 -128.257812 196.390625 -119.1875 C 193.460938 -110.125 189.332031 -103.992188 184 -100.796875 Z M 299.203125 -205.59375 C 294.398438 -220.53125 285.460938 -235.066406 272.390625 -249.203125 C 259.328125 -263.335938 243.0625 -274.9375 223.59375 -284 C 204.132812 -293.0625 181.867188 -297.59375 156.796875 -297.59375 C 132.265625 -297.59375 109.195312 -292.523438 87.59375 -282.390625 C 66 -272.265625 48.398438 -257.46875 34.796875 -238 C 21.203125 -218.53125 13.601562 -194.664062 12 -166.40625 C 10.394531 -132.269531 16.125 -103.066406 29.1875 -78.796875 C 42.257812 -54.535156 60.128906 -35.867188 82.796875 -22.796875 C 105.460938 -9.734375 130.664062 -3.203125 158.40625 -3.203125 C 172.269531 -3.203125 185.867188 -4.800781 199.203125 -8 C 225.335938 -14.394531 248.003906 -26.789062 267.203125 -45.1875 C 286.398438 -63.59375 299.460938 -86.660156 306.390625 -114.390625 C 313.328125 -142.128906 310.929688 -172.53125 299.203125 -205.59375 Z M 299.203125 -205.59375 "/></g></g></g><g fill="#ff9a00" fill-opacity="1"><g transform="translate(2615.791974, 972.445852)"><g><path d="M 169.59375 -287.203125 L 319.203125 -284.796875 C 319.203125 -284.796875 318.664062 -282.660156 317.59375 -278.390625 C 316.53125 -274.128906 315.195312 -268.53125 313.59375 -261.59375 L 359.203125 -260.796875 C 359.203125 -260.796875 357.597656 -254.394531 354.390625 -241.59375 C 351.191406 -228.800781 346.523438 -211.867188 340.390625 -190.796875 C 334.265625 -169.734375 326.664062 -146.800781 317.59375 -122 C 308.53125 -97.195312 298 -72.394531 286 -47.59375 C 274 -22.800781 260.800781 -0.269531 246.40625 20 L 136 28.796875 C 136 28.796875 134.53125 26.53125 131.59375 22 C 128.664062 17.46875 125.066406 10.9375 120.796875 2.40625 L 96 4.796875 C 96 4.796875 91.460938 -3.332031 82.390625 -19.59375 C 73.328125 -35.863281 62.394531 -57.734375 49.59375 -85.203125 C 36.800781 -112.671875 24.535156 -143.601562 12.796875 -178 C 1.066406 -212.394531 -7.726562 -247.992188 -13.59375 -284.796875 L 120.796875 -287.203125 C 120.796875 -287.203125 121.195312 -284.800781 122 -280 C 122.800781 -275.195312 123.734375 -269.332031 124.796875 -262.40625 L 160.796875 -263.203125 C 160.796875 -263.203125 161.328125 -259.734375 162.390625 -252.796875 C 163.460938 -245.867188 164.800781 -237.867188 166.40625 -228.796875 C 167.46875 -237.867188 168.128906 -247.203125 168.390625 -256.796875 C 168.660156 -266.398438 169.0625 -276.535156 169.59375 -287.203125 Z M 308.796875 -276.796875 L 177.59375 -279.203125 C 177.0625 -235.460938 173.863281 -201.0625 168 -176 C 162.132812 -150.9375 159.203125 -138.40625 159.203125 -138.40625 C 153.867188 -147.46875 148.535156 -159.863281 143.203125 -175.59375 C 137.867188 -191.332031 133.332031 -207.332031 129.59375 -223.59375 C 125.863281 -239.863281 122.796875 -253.734375 120.390625 -265.203125 C 117.992188 -276.671875 116.796875 -282.40625 116.796875 -282.40625 L -4 -276.796875 C 1.332031 -243.203125 9.597656 -210.132812 20.796875 -177.59375 C 31.992188 -145.0625 43.726562 -115.59375 56 -89.1875 C 68.269531 -62.789062 78.800781 -41.859375 87.59375 -26.390625 C 96.394531 -10.929688 100.796875 -3.203125 100.796875 -3.203125 L 202.40625 -12 C 216.269531 -30.664062 228.800781 -51.734375 240 -75.203125 C 251.195312 -98.671875 261.0625 -122.269531 269.59375 -146 C 278.132812 -169.726562 285.335938 -191.457031 291.203125 -211.1875 C 297.066406 -230.925781 301.460938 -246.796875 304.390625 -258.796875 C 307.328125 -270.796875 308.796875 -276.796875 308.796875 -276.796875 Z M 308.796875 -276.796875 "/></g></g></g><g fill="#ff9a00" fill-opacity="1"><g transform="translate(2919.792432, 972.445852)"><g><path d="M 129.59375 -331.203125 C 117.863281 -331.203125 106 -333.46875 94 -338 C 82 -342.53125 72 -349.332031 64 -358.40625 C 44.800781 -363.195312 28.664062 -374.394531 15.59375 -392 C 2.53125 -409.601562 -4 -428.269531 -4 -448 C -4 -462.9375 -0.132812 -476.800781 7.59375 -489.59375 C 15.332031 -502.394531 25.46875 -512.925781 38 -521.1875 C 50.53125 -529.457031 64 -533.59375 78.40625 -533.59375 C 90.664062 -533.59375 104.53125 -530.925781 120 -525.59375 C 135.46875 -520.257812 147.46875 -512.53125 156 -502.40625 L 164 -500 C 181.601562 -494.132812 194.671875 -484 203.203125 -469.59375 C 211.734375 -455.195312 216 -439.46875 216 -422.40625 C 216 -397.863281 208 -376.523438 192 -358.390625 C 176 -340.265625 155.195312 -331.203125 129.59375 -331.203125 Z M 7.203125 -293.59375 L 157.59375 -307.203125 C 158.132812 -302.929688 158.800781 -298.53125 159.59375 -294 C 160.394531 -289.46875 161.0625 -284.800781 161.59375 -280 L 197.59375 -283.203125 C 201.863281 -256.535156 205.066406 -226.929688 207.203125 -194.390625 C 209.335938 -161.859375 210.671875 -130.257812 211.203125 -99.59375 C 211.734375 -68.925781 212 -42.660156 212 -20.796875 L 212 33.59375 C 202.394531 34.132812 194.789062 34.535156 189.1875 34.796875 C 183.59375 35.066406 178.394531 35.203125 173.59375 35.203125 C 154.925781 35.203125 135.992188 34.535156 116.796875 33.203125 C 97.597656 31.867188 80.398438 30.265625 65.203125 28.390625 C 50.003906 26.523438 39.203125 25.0625 32.796875 24 L 34.40625 5.59375 C 25.332031 4.53125 17.0625 3.460938 9.59375 2.390625 C 2.132812 1.328125 -3.460938 0.53125 -7.203125 0 C -3.460938 -33.0625 -0.53125 -66.660156 1.59375 -100.796875 C 3.726562 -134.929688 5.195312 -166.664062 6 -196 C 6.800781 -225.332031 7.203125 -248.929688 7.203125 -266.796875 C 7.203125 -284.660156 7.203125 -293.59375 7.203125 -293.59375 Z M 150.40625 -298.40625 L 15.203125 -286.40625 C 15.203125 -286.40625 15.203125 -277.738281 15.203125 -260.40625 C 15.203125 -243.070312 14.800781 -220.535156 14 -192.796875 C 13.195312 -165.066406 11.863281 -134.800781 10 -102 C 8.132812 -69.195312 5.332031 -37.332031 1.59375 -6.40625 C 7.46875 -5.332031 17.335938 -3.992188 31.203125 -2.390625 C 45.066406 -0.796875 61.066406 0.53125 79.203125 1.59375 C 97.335938 2.664062 115.46875 3.203125 133.59375 3.203125 C 138.925781 3.203125 144.125 3.203125 149.1875 3.203125 C 154.257812 3.203125 159.195312 2.9375 164 2.40625 C 164 2.40625 164.128906 -4.394531 164.390625 -18 C 164.660156 -31.601562 164.660156 -49.46875 164.390625 -71.59375 C 164.128906 -93.726562 163.597656 -118.128906 162.796875 -144.796875 C 161.992188 -171.460938 160.660156 -198.128906 158.796875 -224.796875 C 156.929688 -251.460938 154.132812 -276 150.40625 -298.40625 Z M 44.796875 -375.203125 C 49.597656 -372.003906 56 -369.203125 64 -366.796875 C 72 -364.398438 80.53125 -363.203125 89.59375 -363.203125 C 99.195312 -363.203125 109.195312 -365.203125 119.59375 -369.203125 C 130 -373.203125 139.46875 -380.269531 148 -390.40625 C 159.195312 -403.738281 165.59375 -419.070312 167.1875 -436.40625 C 168.789062 -453.738281 165.859375 -470.003906 158.390625 -485.203125 C 150.929688 -500.398438 138.664062 -510.929688 121.59375 -516.796875 C 105.0625 -522.660156 90.664062 -525.59375 78.40625 -525.59375 C 50.664062 -525.59375 28.796875 -510.925781 12.796875 -481.59375 C 4.796875 -467.195312 1.992188 -452.796875 4.390625 -438.390625 C 6.796875 -423.992188 12 -411.328125 20 -400.390625 C 28 -389.460938 36.265625 -381.066406 44.796875 -375.203125 Z M 44.796875 -375.203125 "/></g></g></g><g fill="#ff9a00" fill-opacity="1"><g transform="translate(3094.192685, 972.445852)"><g><path d="M 201.59375 25.59375 C 180.257812 25.59375 159.992188 22.925781 140.796875 17.59375 C 121.597656 12.257812 103.46875 2.925781 86.40625 -10.40625 C 56.53125 -22.664062 34.257812 -41.328125 19.59375 -66.390625 C 4.925781 -91.460938 -2.40625 -118.132812 -2.40625 -146.40625 C -2.40625 -172.53125 4.394531 -197.859375 18 -222.390625 C 31.601562 -246.929688 50.9375 -267.734375 76 -284.796875 C 101.0625 -301.867188 131.195312 -311.738281 166.40625 -314.40625 C 186.132812 -313.863281 203.863281 -310.660156 219.59375 -304.796875 C 235.332031 -298.929688 248.535156 -290.929688 259.203125 -280.796875 C 281.066406 -272.796875 298.265625 -260.53125 310.796875 -244 C 323.328125 -227.46875 329.59375 -209.867188 329.59375 -191.203125 C 329.59375 -173.066406 324.523438 -155.734375 314.390625 -139.203125 C 304.265625 -122.671875 288.800781 -109.601562 268 -100 L 270.40625 -89.59375 C 279.46875 -91.726562 287.195312 -93.726562 293.59375 -95.59375 C 300 -97.46875 303.203125 -98.40625 303.203125 -98.40625 C 303.203125 -98.40625 304.132812 -94.40625 306 -86.40625 C 307.863281 -78.40625 309.863281 -68.800781 312 -57.59375 C 314.132812 -46.394531 316 -35.195312 317.59375 -24 C 319.195312 -12.800781 319.734375 -4 319.203125 2.40625 C 319.203125 2.40625 314.132812 4.269531 304 8 C 293.863281 11.726562 279.863281 15.59375 262 19.59375 C 244.132812 23.59375 224 25.59375 201.59375 25.59375 Z M 160.796875 -228 C 162.398438 -228.53125 164 -228.796875 165.59375 -228.796875 C 167.195312 -228.796875 168.53125 -228.796875 169.59375 -228.796875 C 183.46875 -228.796875 191.867188 -225.0625 194.796875 -217.59375 C 197.734375 -210.132812 195.066406 -202.671875 186.796875 -195.203125 C 178.535156 -187.734375 164.800781 -184 145.59375 -184 C 135.46875 -184 125.335938 -185.066406 115.203125 -187.203125 C 119.460938 -197.867188 125.59375 -206.929688 133.59375 -214.390625 C 141.59375 -221.859375 150.660156 -226.394531 160.796875 -228 Z M 148.796875 -6.40625 L 162.40625 -6.40625 C 184.269531 -6.40625 203.332031 -8.132812 219.59375 -11.59375 C 235.863281 -15.0625 248.53125 -18.394531 257.59375 -21.59375 C 266.664062 -24.800781 271.203125 -26.40625 271.203125 -26.40625 C 271.734375 -31.738281 271.332031 -39.070312 270 -48.40625 C 268.664062 -57.738281 267.066406 -67.335938 265.203125 -77.203125 C 263.335938 -87.066406 261.601562 -95.332031 260 -102 C 258.394531 -108.664062 257.59375 -112 257.59375 -112 C 257.59375 -112 253.726562 -111.066406 246 -109.203125 C 238.269531 -107.335938 228.535156 -105.335938 216.796875 -103.203125 C 205.066406 -101.066406 192.535156 -100 179.203125 -100 C 169.066406 -100 158.53125 -100.929688 147.59375 -102.796875 C 136.664062 -104.660156 128 -109.863281 121.59375 -118.40625 C 127.46875 -117.863281 132.9375 -117.457031 138 -117.1875 C 143.0625 -116.925781 147.992188 -116.796875 152.796875 -116.796875 C 186.929688 -116.796875 214.128906 -123.195312 234.390625 -136 C 254.660156 -148.800781 268.394531 -164.664062 275.59375 -183.59375 C 282.800781 -202.53125 283.738281 -221.332031 278.40625 -240 C 273.070312 -258.664062 261.601562 -274.398438 244 -287.203125 C 226.394531 -300.003906 203.195312 -306.40625 174.40625 -306.40625 L 166.40625 -306.40625 C 132.800781 -305.332031 104.398438 -297.460938 81.203125 -282.796875 C 58.003906 -268.128906 40.132812 -249.59375 27.59375 -227.1875 C 15.0625 -204.789062 7.992188 -181.191406 6.390625 -156.390625 C 4.796875 -131.597656 8.929688 -108 18.796875 -85.59375 C 28.660156 -63.195312 44.394531 -44.796875 66 -30.390625 C 87.601562 -15.992188 115.203125 -8 148.796875 -6.40625 Z M 148.796875 -6.40625 "/></g></g></g><g fill="#ff9a00" fill-opacity="1"><g transform="translate(3381.39322, 972.445852)"><g><path d="M 52.796875 4 L 46.40625 -3.203125 L 44.796875 -14.40625 C 39.460938 -15.46875 34.128906 -16.398438 28.796875 -17.203125 C 23.460938 -18.003906 18.128906 -18.9375 12.796875 -20 L 6.40625 -27.203125 C 2.664062 -62.929688 0.128906 -98.53125 -1.203125 -134 C -2.535156 -169.46875 -3.203125 -203.734375 -3.203125 -236.796875 C -3.203125 -283.734375 -2.132812 -326.535156 0 -365.203125 C 2.132812 -403.867188 4.132812 -434.929688 6 -458.390625 C 7.863281 -481.859375 8.796875 -493.59375 8.796875 -493.59375 L 156.796875 -501.59375 C 156.796875 -501.59375 156.394531 -499.328125 155.59375 -494.796875 C 154.800781 -490.265625 153.867188 -483.734375 152.796875 -475.203125 L 196.796875 -477.59375 C 196.796875 -477.59375 195.59375 -468.925781 193.1875 -451.59375 C 190.789062 -434.257812 187.992188 -410.523438 184.796875 -380.390625 C 181.597656 -350.265625 178.796875 -315.867188 176.390625 -277.203125 C 173.992188 -238.535156 172.796875 -197.867188 172.796875 -155.203125 C 172.796875 -147.203125 172.660156 -139.867188 172.390625 -133.203125 C 172.128906 -126.535156 172.265625 -119.734375 172.796875 -112.796875 C 190.929688 -113.867188 209.863281 -115.867188 229.59375 -118.796875 C 249.332031 -121.734375 267.734375 -124.929688 284.796875 -128.390625 C 301.867188 -131.859375 315.738281 -134.789062 326.40625 -137.1875 C 337.070312 -139.59375 342.40625 -140.796875 342.40625 -140.796875 L 342.40625 -108 C 354.664062 -110.664062 364.394531 -112.796875 371.59375 -114.390625 C 378.800781 -115.992188 382.40625 -116.796875 382.40625 -116.796875 L 384 6.40625 C 384 6.40625 376.398438 7.335938 361.203125 9.203125 C 346.003906 11.066406 325.738281 12.929688 300.40625 14.796875 C 275.070312 16.660156 246.9375 17.59375 216 17.59375 C 190.394531 17.59375 163.59375 16.660156 135.59375 14.796875 C 107.59375 12.929688 79.992188 9.332031 52.796875 4 Z M 14.40625 -28 C 41.601562 -22.664062 69.066406 -19.066406 96.796875 -17.203125 C 124.535156 -15.335938 150.9375 -14.40625 176 -14.40625 C 206.394531 -14.40625 233.59375 -15.335938 257.59375 -17.203125 C 281.59375 -19.066406 300.660156 -20.796875 314.796875 -22.390625 C 328.929688 -23.992188 336 -24.796875 336 -24.796875 L 334.40625 -130.40625 C 334.40625 -130.40625 328.535156 -129.070312 316.796875 -126.40625 C 305.066406 -123.738281 290 -120.800781 271.59375 -117.59375 C 253.195312 -114.394531 233.460938 -111.460938 212.390625 -108.796875 C 191.328125 -106.128906 171.460938 -104.796875 152.796875 -104.796875 C 147.992188 -104.796875 143.457031 -104.925781 139.1875 -105.1875 C 134.925781 -105.457031 130.664062 -105.863281 126.40625 -106.40625 C 124.269531 -157.070312 124.132812 -205.46875 126 -251.59375 C 127.863281 -297.726562 130.394531 -338.925781 133.59375 -375.1875 C 136.800781 -411.457031 139.867188 -440.125 142.796875 -461.1875 C 145.734375 -482.257812 147.203125 -492.796875 147.203125 -492.796875 L 16 -485.59375 C 16 -485.59375 15.332031 -477.0625 14 -460 C 12.664062 -442.9375 11.066406 -419.46875 9.203125 -389.59375 C 7.335938 -359.726562 6.132812 -325.328125 5.59375 -286.390625 C 5.0625 -247.460938 5.328125 -205.863281 6.390625 -161.59375 C 7.460938 -117.332031 10.132812 -72.800781 14.40625 -28 Z M 14.40625 -28 "/></g></g></g><g fill="#ff9a00" fill-opacity="1"><g transform="translate(3722.993658, 972.445852)"><g><path d="M 129.59375 -331.203125 C 117.863281 -331.203125 106 -333.46875 94 -338 C 82 -342.53125 72 -349.332031 64 -358.40625 C 44.800781 -363.195312 28.664062 -374.394531 15.59375 -392 C 2.53125 -409.601562 -4 -428.269531 -4 -448 C -4 -462.9375 -0.132812 -476.800781 7.59375 -489.59375 C 15.332031 -502.394531 25.46875 -512.925781 38 -521.1875 C 50.53125 -529.457031 64 -533.59375 78.40625 -533.59375 C 90.664062 -533.59375 104.53125 -530.925781 120 -525.59375 C 135.46875 -520.257812 147.46875 -512.53125 156 -502.40625 L 164 -500 C 181.601562 -494.132812 194.671875 -484 203.203125 -469.59375 C 211.734375 -455.195312 216 -439.46875 216 -422.40625 C 216 -397.863281 208 -376.523438 192 -358.390625 C 176 -340.265625 155.195312 -331.203125 129.59375 -331.203125 Z M 7.203125 -293.59375 L 157.59375 -307.203125 C 158.132812 -302.929688 158.800781 -298.53125 159.59375 -294 C 160.394531 -289.46875 161.0625 -284.800781 161.59375 -280 L 197.59375 -283.203125 C 201.863281 -256.535156 205.066406 -226.929688 207.203125 -194.390625 C 209.335938 -161.859375 210.671875 -130.257812 211.203125 -99.59375 C 211.734375 -68.925781 212 -42.660156 212 -20.796875 L 212 33.59375 C 202.394531 34.132812 194.789062 34.535156 189.1875 34.796875 C 183.59375 35.066406 178.394531 35.203125 173.59375 35.203125 C 154.925781 35.203125 135.992188 34.535156 116.796875 33.203125 C 97.597656 31.867188 80.398438 30.265625 65.203125 28.390625 C 50.003906 26.523438 39.203125 25.0625 32.796875 24 L 34.40625 5.59375 C 25.332031 4.53125 17.0625 3.460938 9.59375 2.390625 C 2.132812 1.328125 -3.460938 0.53125 -7.203125 0 C -3.460938 -33.0625 -0.53125 -66.660156 1.59375 -100.796875 C 3.726562 -134.929688 5.195312 -166.664062 6 -196 C 6.800781 -225.332031 7.203125 -248.929688 7.203125 -266.796875 C 7.203125 -284.660156 7.203125 -293.59375 7.203125 -293.59375 Z M 150.40625 -298.40625 L 15.203125 -286.40625 C 15.203125 -286.40625 15.203125 -277.738281 15.203125 -260.40625 C 15.203125 -243.070312 14.800781 -220.535156 14 -192.796875 C 13.195312 -165.066406 11.863281 -134.800781 10 -102 C 8.132812 -69.195312 5.332031 -37.332031 1.59375 -6.40625 C 7.46875 -5.332031 17.335938 -3.992188 31.203125 -2.390625 C 45.066406 -0.796875 61.066406 0.53125 79.203125 1.59375 C 97.335938 2.664062 115.46875 3.203125 133.59375 3.203125 C 138.925781 3.203125 144.125 3.203125 149.1875 3.203125 C 154.257812 3.203125 159.195312 2.9375 164 2.40625 C 164 2.40625 164.128906 -4.394531 164.390625 -18 C 164.660156 -31.601562 164.660156 -49.46875 164.390625 -71.59375 C 164.128906 -93.726562 163.597656 -118.128906 162.796875 -144.796875 C 161.992188 -171.460938 160.660156 -198.128906 158.796875 -224.796875 C 156.929688 -251.460938 154.132812 -276 150.40625 -298.40625 Z M 44.796875 -375.203125 C 49.597656 -372.003906 56 -369.203125 64 -366.796875 C 72 -364.398438 80.53125 -363.203125 89.59375 -363.203125 C 99.195312 -363.203125 109.195312 -365.203125 119.59375 -369.203125 C 130 -373.203125 139.46875 -380.269531 148 -390.40625 C 159.195312 -403.738281 165.59375 -419.070312 167.1875 -436.40625 C 168.789062 -453.738281 165.859375 -470.003906 158.390625 -485.203125 C 150.929688 -500.398438 138.664062 -510.929688 121.59375 -516.796875 C 105.0625 -522.660156 90.664062 -525.59375 78.40625 -525.59375 C 50.664062 -525.59375 28.796875 -510.925781 12.796875 -481.59375 C 4.796875 -467.195312 1.992188 -452.796875 4.390625 -438.390625 C 6.796875 -423.992188 12 -411.328125 20 -400.390625 C 28 -389.460938 36.265625 -381.066406 44.796875 -375.203125 Z M 44.796875 -375.203125 "/></g></g></g><g fill="#ff9a00" fill-opacity="1"><g transform="translate(3897.394098, 972.445852)"><g><path d="M 223.203125 -159.203125 C 223.203125 -164.535156 221.867188 -170.664062 219.203125 -177.59375 C 212.265625 -177.0625 205.328125 -175.992188 198.390625 -174.390625 C 191.460938 -172.796875 185.066406 -170.929688 179.203125 -168.796875 L 174.40625 -119.203125 L 180.796875 -119.203125 C 193.066406 -119.203125 203.203125 -122.664062 211.203125 -129.59375 C 219.203125 -136.53125 223.203125 -146.398438 223.203125 -159.203125 Z M 4.796875 -65.59375 L 3.203125 -71.203125 C 3.203125 -71.203125 4.132812 -81.734375 6 -102.796875 C 7.863281 -123.867188 8.796875 -152.800781 8.796875 -189.59375 C 8.796875 -221.59375 7.460938 -259.0625 4.796875 -302 C 2.128906 -344.9375 -3.734375 -391.738281 -12.796875 -442.40625 C -2.128906 -446.664062 11.332031 -449.726562 27.59375 -451.59375 C 43.863281 -453.46875 60.53125 -454.671875 77.59375 -455.203125 C 94.664062 -455.734375 109.332031 -456 121.59375 -456 L 160.796875 -456 L 158.40625 -432 L 200.796875 -432 L 190.40625 -308.796875 C 194.664062 -309.328125 198.53125 -309.726562 202 -310 C 205.46875 -310.269531 209.066406 -310.40625 212.796875 -310.40625 C 232.535156 -310.40625 249.601562 -307.46875 264 -301.59375 C 278.394531 -295.726562 290.660156 -288 300.796875 -278.40625 C 327.460938 -269.332031 347.195312 -253.863281 360 -232 C 372.800781 -210.132812 380.800781 -188 384 -165.59375 L 384 -166.40625 C 385.601562 -156.269531 386.40625 -146.132812 386.40625 -136 C 386.40625 -102.9375 378.40625 -73.738281 362.40625 -48.40625 C 346.40625 -23.070312 325.070312 -3.335938 298.40625 10.796875 C 271.738281 24.929688 242.40625 32 210.40625 32 C 187.46875 32 163.863281 28.398438 139.59375 21.203125 C 115.332031 14.003906 93.332031 2.9375 73.59375 -12 C 60.257812 -17.863281 47.726562 -25.328125 36 -34.390625 C 24.269531 -43.460938 13.867188 -53.863281 4.796875 -65.59375 Z M 184.796875 -209.59375 C 204.535156 -209.59375 217.867188 -201.863281 224.796875 -186.40625 C 231.734375 -171.46875 233.203125 -157.597656 229.203125 -144.796875 C 225.203125 -131.992188 219.203125 -123.460938 211.203125 -119.203125 C 202.128906 -113.867188 191.992188 -111.203125 180.796875 -111.203125 C 171.203125 -111.203125 162.269531 -112.800781 154 -116 C 145.726562 -119.195312 138.925781 -122.257812 133.59375 -125.1875 C 128.257812 -128.125 125.59375 -129.59375 125.59375 -129.59375 L 131.203125 -197.59375 C 138.671875 -200.800781 147.070312 -203.601562 156.40625 -206 C 165.738281 -208.394531 175.203125 -209.59375 184.796875 -209.59375 Z M 11.203125 -70.40625 C 29.867188 -45.863281 53.867188 -27.992188 83.203125 -16.796875 C 112.535156 -5.597656 141.601562 0 170.40625 0 C 184.269531 0 197.46875 -1.332031 210 -4 C 222.53125 -6.664062 233.863281 -10.132812 244 -14.40625 C 262.664062 -22.40625 279.734375 -34.132812 295.203125 -49.59375 C 310.671875 -65.0625 322.40625 -84.394531 330.40625 -107.59375 C 338.40625 -130.800781 340.269531 -157.867188 336 -188.796875 C 333.863281 -206.398438 328.394531 -224 319.59375 -241.59375 C 310.800781 -259.195312 297.867188 -273.734375 280.796875 -285.203125 C 263.734375 -296.671875 241.066406 -302.40625 212.796875 -302.40625 C 186.660156 -302.40625 161.863281 -296.535156 138.40625 -284.796875 L 152 -448 L 121.59375 -448 C 109.332031 -448 94.929688 -447.863281 78.390625 -447.59375 C 61.859375 -447.332031 45.992188 -446.398438 30.796875 -444.796875 C 15.597656 -443.203125 4 -440.800781 -4 -437.59375 C 5.0625 -384.800781 11.0625 -336.003906 14 -291.203125 C 16.9375 -246.398438 18.003906 -207.597656 17.203125 -174.796875 C 16.398438 -141.992188 15.195312 -116.394531 13.59375 -98 C 12 -79.601562 11.203125 -70.40625 11.203125 -70.40625 Z M 11.203125 -70.40625 "/></g></g></g></svg>